<svg id="Layer_1" xmlns="http://www.w3.org/2000/svg" viewBox="0 0 288 288"><style>.st0{fill:url(#SVGID_1_)}.st1{fill:url(#SVGID_2_)}.st2{fill:url(#SVGID_3_)}.st3{fill:url(#SVGID_4_)}.st4{fill:url(#SVGID_5_)}.st5{fill:url(#SVGID_6_)}.st6{fill:url(#SVGID_7_)}.st7{fill:url(#SVGID_8_)}.st8{fill:url(#SVGID_9_)}.st9{fill:url(#SVGID_10_)}.st10{fill:url(#SVGID_11_)}</style><linearGradient id="SVGID_1_" gradientUnits="userSpaceOnUse" x1="144.04" y1="11.011" x2="144.04" y2="46.6"><stop offset="0" stop-color="#72bf44"/><stop offset=".186" stop-color="#6bba43"/><stop offset=".379" stop-color="#58af42"/><stop offset=".574" stop-color="#36a040"/><stop offset=".772" stop-color="#008b3d"/><stop offset=".969" stop-color="#007235"/><stop offset="1" stop-color="#006e34"/></linearGradient><path class="st0" d="M156.7 46.6h-25.4l-1-15-3-15c9.8-7.6 23.6-7.6 33.4 0l-3 15-1 15z"/><radialGradient id="SVGID_2_" cx="149" cy="87.714" r="114.141" gradientTransform="rotate(180 144.02 96.99)" gradientUnits="userSpaceOnUse"><stop offset="0" stop-color="#72bf44"/><stop offset=".311" stop-color="#6dbc43"/><stop offset=".489" stop-color="#61b443"/><stop offset=".632" stop-color="#4ca942"/><stop offset=".758" stop-color="#289a40"/><stop offset=".871" stop-color="#00883c"/><stop offset=".975" stop-color="#007436"/><stop offset="1" stop-color="#006e34"/></radialGradient><path class="st1" d="M82.3 142.9c4.9 5.3 10.4 9.8 16.1 13.7 0 0 .1 0 .1.1 30.7 20.8 68.1 22.3 68.1 22.3s-26.5-17.3-43.9-30.5c-6.8-4.4-12.7-9.9-17.4-16.4-4.1-5.4-5.4-8.6-5.4-8.6-.9-1.8-1.7-3.6-2.4-5.6-3-7.5-4.6-15.6-4.6-24.1 0-33.7 25.7-61.4 58.6-64.6-2.4-.2-4.8-.3-7.3-.3-43.4 0-78.6 31.5-78.6 70.4-.2 16.4 6.1 31.6 16.7 43.6z"/><radialGradient id="SVGID_3_" cx="197.232" cy="93.823" r="114.791" gradientUnits="userSpaceOnUse"><stop offset="0" stop-color="#72bf44"/><stop offset=".318" stop-color="#6dbc43"/><stop offset=".494" stop-color="#61b443"/><stop offset=".636" stop-color="#4da942"/><stop offset=".76" stop-color="#299b40"/><stop offset=".871" stop-color="#00893c"/><stop offset=".972" stop-color="#007436"/><stop offset="1" stop-color="#006e34"/></radialGradient><path class="st2" d="M95 104.3c0-23.7 20.4-42.9 45.6-42.9 21.5 0 39.5 14 44.3 32.8.2.8.4 1.7.6 2.6 2.3 7.9 9.6 13.6 18.2 13.6 10.2 0 18.5-8.1 18.9-18.2 0-1.4-.1-2.8-.2-4.2-.3-2.4-.8-4.6-.8-4.6-7.9-28.7-36.4-51.4-70.3-54.3-32.8 3.2-58.5 30.9-58.5 64.7 0 8.5 1.7 16.7 4.6 24.1-1.5-4.3-2.4-8.9-2.4-13.6z"/><linearGradient id="SVGID_4_" gradientUnits="userSpaceOnUse" x1="144.04" y1="104.254" x2="144.04" y2="139.844" gradientTransform="rotate(180 144.02 191.645)"><stop offset="0" stop-color="#0096db"/><stop offset=".186" stop-color="#0093d6"/><stop offset=".379" stop-color="#008bcc"/><stop offset=".574" stop-color="#0080bd"/><stop offset=".772" stop-color="#0070a8"/><stop offset=".969" stop-color="#005b8d"/><stop offset="1" stop-color="#005888"/></linearGradient><path class="st3" d="M131.3 243.4h25.4l1 15 3 15c-9.8 7.6-23.6 7.6-33.4 0l3-15 1-15z"/><radialGradient id="SVGID_5_" cx="149" cy="-5.529" r="114.141" gradientTransform="translate(0 189.314)" gradientUnits="userSpaceOnUse"><stop offset="0" stop-color="#0096db"/><stop offset=".311" stop-color="#0094d7"/><stop offset=".489" stop-color="#008fd0"/><stop offset=".632" stop-color="#0087c6"/><stop offset=".758" stop-color="#007cb8"/><stop offset=".871" stop-color="#006ea5"/><stop offset=".975" stop-color="#005d8e"/><stop offset="1" stop-color="#005888"/></radialGradient><path class="st4" d="M205.7 147.2c-4.9-5.3-10.4-9.8-16.1-13.7 0 0-.1 0-.1-.1-30.7-20.8-68.1-22.3-68.1-22.3s26.5 17.3 43.9 30.5c6.8 4.4 12.7 9.9 17.4 16.4 4.1 5.4 5.4 8.6 5.4 8.6.9 1.8 1.7 3.6 2.4 5.6 3 7.5 4.6 15.6 4.6 24.1 0 33.7-25.7 61.4-58.6 64.6 2.4.2 4.8.3 7.3.3 43.4 0 78.6-31.5 78.6-70.4.2-16.5-6.1-31.6-16.7-43.6z"/><radialGradient id="SVGID_6_" cx="197.232" cy="187.066" r="114.791" gradientTransform="rotate(180 144.02 191.645)" gradientUnits="userSpaceOnUse"><stop offset="0" stop-color="#0096db"/><stop offset=".311" stop-color="#0094d7"/><stop offset=".489" stop-color="#008fd0"/><stop offset=".632" stop-color="#0087c6"/><stop offset=".758" stop-color="#007cb8"/><stop offset=".871" stop-color="#006ea5"/><stop offset=".975" stop-color="#005d8e"/><stop offset="1" stop-color="#005888"/></radialGradient><path class="st5" d="M193 185.8c0 23.7-20.4 42.9-45.6 42.9-21.5 0-39.5-14-44.3-32.8-.2-.8-.4-1.7-.6-2.6-2.3-7.9-9.6-13.6-18.2-13.6-10.2 0-18.5 8.1-18.9 18.2 0 1.4.1 2.8.2 4.2.3 2.4.8 4.6.8 4.6 7.9 28.7 36.4 51.4 70.3 54.3 32.9-3.2 58.6-30.9 58.6-64.6 0-8.5-1.7-16.7-4.6-24.1 1.4 4.2 2.3 8.7 2.3 13.5z"/><radialGradient id="SVGID_7_" cx="157.702" cy="93.737" r="0" gradientUnits="userSpaceOnUse"><stop offset="0" stop-color="#72bf44"/><stop offset=".318" stop-color="#6dbc43"/><stop offset=".494" stop-color="#61b443"/><stop offset=".636" stop-color="#4da942"/><stop offset=".76" stop-color="#299b40"/><stop offset=".871" stop-color="#00893c"/><stop offset=".972" stop-color="#007436"/><stop offset="1" stop-color="#006e34"/></radialGradient><g><linearGradient id="SVGID_8_" gradientUnits="userSpaceOnUse" x1="77.977" y1="171.756" x2="184.115" y2="233.035"><stop offset="0" stop-color="#0096db"/><stop offset=".318" stop-color="#0094d7"/><stop offset=".494" stop-color="#008fd0"/><stop offset=".636" stop-color="#0087c6"/><stop offset=".76" stop-color="#007cb8"/><stop offset=".871" stop-color="#006ea5"/><stop offset=".972" stop-color="#005d8f"/><stop offset="1" stop-color="#005888"/></linearGradient><path class="st7" d="M193 185.8c0 23.7-20.4 42.9-45.6 42.9-21.5 0-39.5-14-44.3-32.8-.2-.8-.4-1.7-.6-2.6-2.3-7.9-9.6-13.6-18.2-13.6-10.2 0-18.5 8.1-18.9 18.2 0 1.4.1 2.8.2 4.2.3 2.4.8 4.6.8 4.6 7.9 28.7 36.4 51.4 70.3 54.3 32.9-3.2 58.6-30.9 58.6-64.6 0-8.5-1.7-16.7-4.6-24.1 1.4 4.2 2.3 8.7 2.3 13.5z"/></g><g><linearGradient id="SVGID_9_" gradientUnits="userSpaceOnUse" x1="77.977" y1="75.686" x2="184.115" y2="136.964" gradientTransform="rotate(180 144.02 96.99)"><stop offset="0" stop-color="#72bf44"/><stop offset=".318" stop-color="#6dbc43"/><stop offset=".494" stop-color="#61b443"/><stop offset=".636" stop-color="#4da942"/><stop offset=".76" stop-color="#299b40"/><stop offset=".871" stop-color="#00893c"/><stop offset=".972" stop-color="#007436"/><stop offset="1" stop-color="#006e34"/></linearGradient><path class="st8" d="M95 104.3c0-23.7 20.4-42.9 45.6-42.9 21.5 0 39.5 14 44.3 32.8.2.8.4 1.7.6 2.6 2.3 7.9 9.6 13.6 18.2 13.6 10.2 0 18.5-8.1 18.9-18.2 0-1.4-.1-2.8-.2-4.2-.3-2.4-.8-4.6-.8-4.6-7.9-28.7-36.4-51.4-70.3-54.3-32.8 3.2-58.5 30.9-58.5 64.7 0 8.5 1.7 16.7 4.6 24.1-1.5-4.3-2.4-8.9-2.4-13.6z"/></g><g><radialGradient id="SVGID_10_" cx="169.428" cy="106.347" r="88.85" gradientUnits="userSpaceOnUse"><stop offset="0" stop-color="#72bf44"/><stop offset=".318" stop-color="#6dbc43"/><stop offset=".494" stop-color="#61b443"/><stop offset=".636" stop-color="#4da942"/><stop offset=".76" stop-color="#299b40"/><stop offset=".871" stop-color="#00893c"/><stop offset=".972" stop-color="#007436"/><stop offset="1" stop-color="#006e34"/></radialGradient><path class="st9" d="M95 104.3c0-23.7 20.4-42.9 45.6-42.9 21.5 0 39.5 14 44.3 32.8.2.8.4 1.7.6 2.6 2.3 7.9 9.6 13.6 18.2 13.6 10.2 0 18.5-8.1 18.9-18.2 0-1.4-.1-2.8-.2-4.2-.3-2.4-.8-4.6-.8-4.6-7.9-28.7-36.4-51.4-70.3-54.3-32.8 3.2-58.5 30.9-58.5 64.7 0 8.5 1.7 16.7 4.6 24.1-1.5-4.3-2.4-8.9-2.4-13.6z"/></g><g><radialGradient id="SVGID_11_" cx="508.537" cy="245.836" r="88.85" gradientTransform="rotate(180 313.575 214.77)" gradientUnits="userSpaceOnUse"><stop offset="0" stop-color="#0096db"/><stop offset=".318" stop-color="#0094d7"/><stop offset=".494" stop-color="#008fd0"/><stop offset=".636" stop-color="#0087c6"/><stop offset=".76" stop-color="#007cb8"/><stop offset=".871" stop-color="#006ea5"/><stop offset=".972" stop-color="#005d8f"/><stop offset="1" stop-color="#005888"/></radialGradient><path class="st10" d="M193 185.8c0 23.7-20.4 42.9-45.6 42.9-21.5 0-39.5-14-44.3-32.8-.2-.8-.4-1.7-.6-2.6-2.3-7.9-9.6-13.6-18.2-13.6-10.2 0-18.5 8.1-18.9 18.2 0 1.4.1 2.8.2 4.2.3 2.4.8 4.6.8 4.6 7.9 28.7 36.4 51.4 70.3 54.3 32.9-3.2 58.6-30.9 58.6-64.6 0-8.5-1.7-16.7-4.6-24.1 1.4 4.2 2.3 8.7 2.3 13.5z"/></g></svg>