<svg xmlns="http://www.w3.org/2000/svg" width="202.5" height="202.5" viewBox="0 0 202.5 202.5"><defs><clipPath id="a"><path d="M0 162h162V0H0v162z"/></clipPath></defs><g clip-path="url(#a)" transform="matrix(1.25 0 0 -1.25 0 202.5)"><path d="M113.21 63.097c-3.248-14.55-16.228-25.428-31.756-25.428-17.975 0-32.547 14.57-32.547 32.545 0 17.976 14.572 32.547 32.547 32.547 15.528 0 28.508-10.88 31.756-25.428l9.168 9.167c-6.476 16.264-22.353 27.762-40.924 27.762-24.327 0-44.047-19.72-44.047-44.047 0-24.326 19.72-44.046 44.047-44.046 18.57 0 34.448 11.497 40.924 27.76l-9.168 9.167z" fill="#2b8ece"/><path d="M101.615 33.262a27.986 27.986 0 0 0-5.894-4.437c7.56 2.6 14.336 7.26 19.56 13.616l1.327 1.617-7.03 4.88c-.086-.748-.21-1.492-.372-2.23-1.13-5.156-4.02-9.946-7.59-13.445" fill="#2b8ece"/><path d="M112.124 55.577a33.93 33.93 0 0 0-2.404-4.158l.02-.01c0-1.264-.11-2.336-.232-3.146l.54-5.96-6.683-8.915-2.528-2.063-1.278-.594-3.84-1.91c2.378.7 3.566 1.238 3.566 1.238a44.052 44.052 0 0 1 21.828 21.108l-8.99 4.41zM62.354 32.12c-4.89 4.525-7.98 10.936-9.183 19.053l-.12.82a33.56 33.56 0 0 0-5.363 18.222c0 9 3.546 17.18 9.305 23.24.444 5.876 2.996 10.907 7.617 14.967a25.963 25.963 0 0 0 6.93 4.416c-19.373-4.505-33.856-21.898-33.856-42.623 0-18.817 11.937-34.896 28.635-41.068a25.383 25.383 0 0 0-3.966 2.972M109.19 104.304s-4.228 3.636-11.187 6.423l6.774-4.732 4.18-6.636.7-1.965-1.197-3.068c.212-1.22.38-2.64.376-4.054v-.004a33.403 33.403 0 0 0 3.15-5.14l8.987 4.408a44.07 44.07 0 0 1-11.782 14.766" fill="#2b8ece"/><path d="M83.168 125.317a5.01 5.01 0 0 1-5.01-5.01V109.56a5.01 5.01 0 0 1 10.02 0v10.747a5.01 5.01 0 0 1-5.01 5.01M83.168 35.478a5.01 5.01 0 0 1-5.01-5.01V14.712h10.02v15.756a5.01 5.01 0 0 1-5.01 5.01" fill="#65b745"/><path d="M99.465 109.68c3.754-2.914 8.356-8.266 9.24-17.257l7.902 3.95-1.327 1.615a43.702 43.702 0 0 1-17.278 12.74c.5-.335.99-.68 1.463-1.048" fill="#2b8ece"/><path d="M61.718 103.203" fill="#231f20"/><path d="M74.867 119.285l8.3 16.69 8.303-16.69-8.302 2-8.3-2zM54.81 49.51c6.184-7.94 15.824-13.06 26.643-13.06 9.56 0 18.72 4.098 25.132 11.246l1.596 1.825s.125 1.126.193 2.412c-5.854-8.608-15.724-14.264-26.92-14.264-10.984 0-20.69 5.448-26.585 13.783l-.378-.082c.123-1.044.32-1.86.32-1.86" fill="#65b745"/><path d="M73.88 40.62c-1.332.854-2.495 1.966-3.484 3.34-1.453 1.888-2.47 5.302-3.05 10.24l-10.34-2.278c4.117-5.49 10.037-9.552 16.874-11.302" fill="#65b745"/><path d="M81.344 25.584c-7.523 0-13.835 2.28-18.76 6.775-4.837 4.477-7.892 10.822-9.083 18.862l-.136.923 1.938.425.382-.542c5.915-8.365 15.55-13.36 25.77-13.36 10.46 0 20.218 5.177 26.104 13.846l1.978 2.913-.15-3.518c-.317-7.322-3.01-13.516-8.004-18.41-5.362-5.253-12.104-7.916-20.038-7.916" fill="#65b745"/><path d="M110.686 58.9l-3.955-5.824A30.533 30.533 0 0 0 81.454 39.67c-9.896 0-19.224 4.835-24.952 12.936l-.766 1.084-1.296-.285-.378-.084-1.822-.4.274-1.845c1.225-8.27 4.384-14.814 9.39-19.445 5.123-4.68 11.66-7.046 19.442-7.046 8.206 0 15.183 2.76 20.737 8.202 5.184 5.078 7.977 11.497 8.304 19.08l.302 7.035zm-2.3-6.948c-.306-7.092-2.873-13.004-7.704-17.738-5.193-5.088-11.64-7.63-19.338-7.63-7.3 0-13.327 2.17-18.084 6.514-4.684 4.335-7.608 10.426-8.77 18.27l.378.083c5.894-8.334 15.6-13.78 26.585-13.78 11.205 0 21.08 5.663 26.932 14.282" fill="#fff"/><path d="M73.632 39.65c-6.92 1.772-13.11 5.917-17.427 11.67l-.932 1.244 12.937 2.85.13-1.097c.555-4.733 1.514-8.013 2.85-9.748.925-1.288 2.006-2.324 3.23-3.108l5.232-3.352-6.02 1.54z" fill="#65b745"/><path d="M69.073 56.63l-2.158-.477-10.34-2.278-3.034-.668 1.865-2.485c4.452-5.936 10.837-10.21 17.978-12.04l12.03-3.08-10.454 6.7c-1.118.717-2.108 1.668-2.942 2.826l-.018.026-.02.025c-.84 1.092-1.982 3.584-2.65 9.254l-.257 2.195zm-1.728-2.43c.58-4.938 1.598-8.352 3.05-10.24.99-1.374 2.152-2.486 3.484-3.34-6.837 1.75-12.758 5.813-16.875 11.302l10.34 2.278" fill="#fff"/><path d="M86.502 39.832l2.65 1.824c.66.452 1.274.968 1.83 1.53 2.446 2.48 3.634 5.545 3.634 9.372 0 1.514-.212 2.918-.63 4.172a10.395 10.395 0 0 1-1.94 3.426c-.895 1.065-2.077 2.08-3.515 3.022-1.473.965-3.256 1.9-5.294 2.778l-8.104 3.367C63.264 74.336 57.25 81.825 57.25 91.586c0 6.585 2.55 12.166 7.583 16.588 4.995 4.427 11.284 6.672 18.69 6.672 9.27 0 23.55-6.12 24.91-22.98l.085-1.066-14.31-.17-.22.71a81.56 81.56 0 0 0-.566 1.93c-.822 2.884-1.53 5.375-3.293 5.954l-.12.04-.108.068c-1.644 1.052-3.827 1.585-6.488 1.585-3.307 0-5.962-.902-8.117-2.758-2.114-1.786-3.14-3.96-3.14-6.656 0-3.642 2.87-6.668 8.533-8.993l8.387-3.435c6.95-2.81 12.127-6.313 15.384-10.412 2.832-3.568 4.466-7.89 4.856-12.844l.024-.297-.142-.26a32.415 32.415 0 0 0-2.888-4.422c-.28-.36-.565-.714-.86-1.063-.22-.258-.39-.46-.567-.656a32.27 32.27 0 0 0-1.436-1.5l-.388-.368a30.11 30.11 0 0 0-1.753-1.55 30.746 30.746 0 0 0-1.91-1.416l-.445-.307a31.093 31.093 0 0 0-1.828-1.128 21.5 21.5 0 0 0-.597-.327l-.12-.064c-.44-.235-.885-.46-1.337-.674a31.07 31.07 0 0 0-1.407-.63 32.43 32.43 0 0 0-3.416-1.214l-.11-.11H86.5z" fill="#65b745"/><path d="M83.523 115.846c-7.658 0-14.17-2.33-19.356-6.926-5.252-4.615-7.92-10.45-7.92-17.334 0-10.2 6.222-18 18.49-23.182l8.127-3.377c1.967-.848 3.698-1.755 5.12-2.686 1.354-.886 2.464-1.838 3.296-2.827a9.396 9.396 0 0 0 1.757-3.1c.384-1.15.58-2.448.58-3.856 0-3.55-1.096-6.385-3.347-8.668a11.66 11.66 0 0 0-1.686-1.41l-9.827-6.77 11.497 3.194.03.01h.006a32.983 32.983 0 0 1 3.756 1.32 32.99 32.99 0 0 1 2.832 1.344l.13.07c.207.11.412.22.614.337.63.358 1.264.75 1.884 1.16l.353.243.108.076c.762.526 1.388.99 1.97 1.462.563.458 1.155.98 1.808 1.6l.1.092a31.47 31.47 0 0 1 1.784 1.838c.178.2.355.407.532.615l.05.058a33.77 33.77 0 0 1 1.928 2.517 33.606 33.606 0 0 1 1.936 3.14l.283.52-.047.592c-.407 5.157-2.113 9.66-5.07 13.387-3.365 4.237-8.68 7.843-15.796 10.72l-8.38 3.432c-5.32 2.186-7.91 4.825-7.91 8.068 0 2.383.91 4.308 2.777 5.884 1.98 1.706 4.423 2.53 7.48 2.53 2.467 0 4.47-.48 5.95-1.43l.212-.135.24-.08c1.258-.412 1.93-2.776 2.644-5.28.182-.64.37-1.295.573-1.95l.442-1.423 1.49.017 12.493.15 2.142.026-.172 2.134c-1.41 17.534-16.265 23.9-25.905 23.9m0-2c9.696 0 22.665-6.567 23.91-22.06l-12.49-.15c-1.187 3.817-1.78 7.643-4.502 8.537-1.815 1.162-4.157 1.743-7.026 1.743-3.522 0-6.446-1-8.77-3-2.324-1.962-3.486-4.43-3.486-7.413 0-4.104 3.05-7.413 9.15-9.918l8.39-3.437c6.827-2.76 11.82-6.133 14.98-10.11 2.722-3.43 4.265-7.534 4.64-12.3a31.722 31.722 0 0 0-3.63-5.316c-.182-.213-.362-.426-.55-.635-.447-.5-.91-.986-1.392-1.457-.123-.12-.25-.236-.374-.355a29.907 29.907 0 0 0-1.696-1.5 29.876 29.876 0 0 0-1.846-1.37c-.144-.1-.286-.2-.43-.296-.58-.385-1.17-.75-1.77-1.09-.23-.133-.463-.256-.696-.38a31.283 31.283 0 0 0-6.212-2.51h-.003c.694.478 1.354 1.025 1.974 1.652 2.614 2.65 3.922 6.006 3.922 10.073 0 1.63-.227 3.128-.68 4.49A11.323 11.323 0 0 1 92.81 60.8c-.962 1.144-2.206 2.215-3.73 3.214-1.526 1-3.342 1.952-5.448 2.86l-8.116 3.373c-11.512 4.86-17.268 11.974-17.268 21.34 0 6.308 2.415 11.592 7.245 15.836 4.83 4.28 10.84 6.423 18.03 6.423" fill="#fff"/><path d="M58.493 94.943l.013.012c.012.073.02.147.032.22-.013-.08-.033-.153-.045-.232" fill="#65b745"/><path d="M113.21 63.097c-3.248-14.55-16.228-25.428-31.756-25.428-17.975 0-32.547 14.57-32.547 32.545h-11.5c0-24.326 19.72-44.046 44.047-44.046 18.57 0 34.448 11.497 40.924 27.76l-9.168 9.167z" fill="#2b8ece"/></g></svg>